0
SECTION
2
HEADER
9
$INSUNITS
70
4
9
$ACADVER
1
AC1014
9
$HANDSEED
5
FFFF
0
ENDSEC
0
SECTION
2
TABLES
0
TABLE
2
VPORT
5
8
100
AcDbSymbolTable
0
ENDTAB
0
TABLE
2
LTYPE
5
5
100
AcDbSymbolTable
0
LTYPE
5
14
100
AcDbSymbolTableRecord
100
AcDbLinetypeTableRecord
2
BYBLOCK
70
0
0
LTYPE
5
15
100
AcDbSymbolTableRecord
100
AcDbLinetypeTableRecord
2
BYLAYER
70
0
0
ENDTAB
0
TABLE
2
LAYER
5
2
100
AcDbSymbolTable
70
2
0
LAYER
5
50
100
AcDbSymbolTableRecord
100
AcDbLayerTableRecord
2
0
70
0
6
CONTINUOUS
0
ENDTAB
0
TABLE
2
STYLE
5
3
100
AcDbSymbolTable
70
1
0
STYLE
5
11
100
AcDbSymbolTableRecord
100
AcDbTextStyleTableRecord
2
STANDARD
70
0
0
ENDTAB
0
TABLE
2
VIEW
5
6
100
AcDbSymbolTable
70
0
0
ENDTAB
0
TABLE
2
UCS
5
7
100
AcDbSymbolTable
70
0
0
ENDTAB
0
TABLE
2
APPID
5
9
100
AcDbSymbolTable
70
2
0
APPID
5
12
100
AcDbSymbolTableRecord
100
AcDbRegAppTableRecord
2
ACAD
70
0
0
ENDTAB
0
TABLE
2
DIMSTYLE
5
A
100
AcDbSymbolTable
70
1
0
ENDTAB
0
TABLE
2
BLOCK_RECORD
5
1
100
AcDbSymbolTable
70
1
0
BLOCK_RECORD
5
1F
100
AcDbSymbolTableRecord
100
AcDbBlockTableRecord
2
*MODEL_SPACE
0
BLOCK_RECORD
5
1B
100
AcDbSymbolTableRecord
100
AcDbBlockTableRecord
2
*PAPER_SPACE
0
ENDTAB
0
ENDSEC
0
SECTION
2
BLOCKS
0
BLOCK
5
20
100
AcDbEntity
100
AcDbBlockBegin
2
*MODEL_SPACE
0
ENDBLK
5
21
100
AcDbEntity
100
AcDbBlockEnd
0
BLOCK
5
1C
100
AcDbEntity
100
AcDbBlockBegin
2
*PAPER_SPACE
0
ENDBLK
5
1D
100
AcDbEntity
100
AcDbBlockEnd
0
ENDSEC
0
SECTION
2
ENTITIES
0
LWPOLYLINE
5
100
100
AcDbEntity
8
0
100
AcDbPolyline
90
12
70
1
43
0.0
10
41.179799716813434
20
-107.96095485050451
42
-0.41421356237309348
10
36.179799716813427
20
-112.96095485050451
10
-6.8202002831865904
20
-112.96095485050452
10
-6.8202002831865904
20
-102.96095485050452
10
-30.820200283186594
20
-102.96095485050452
10
-30.820200283186601
20
-112.96095485050452
10
-73.820200283186608
20
-112.96095485050451
42
-0.41421356237309453
10
-78.820200283186608
20
-107.96095485050451
10
-78.820200283186594
20
82.039045149495536
42
-0.41421356237309348
10
-73.820200283186622
20
87.039045149495536
10
36.179799716813349
20
87.039045149495678
42
-0.41421356237309764
10
41.179799716813356
20
82.039045149495678
0
CIRCLE
5
101
100
AcDbEntity
8
0
100
AcDbCircle
10
3.6797997168140335
20
63.039045149473324
30
0
40
1.6000000000000003
210
0
220
-0
230
1
0
CIRCLE
5
102
100
AcDbEntity
8
0
100
AcDbCircle
10
-41.320200283187269
20
11.03904514951747
30
0
40
1.6000000000000014
210
0
220
-0
230
1
0
CIRCLE
5
103
100
AcDbEntity
8
0
100
AcDbCircle
10
-61.320200283187248
20
11.039045149517861
30
0
40
1.6000000000000014
210
0
220
-0
230
1
0
CIRCLE
5
104
100
AcDbEntity
8
0
100
AcDbCircle
10
-41.320200283187717
20
-8.9609548504825298
30
0
40
1.6000000000000014
210
0
220
-0
230
1
0
CIRCLE
5
105
100
AcDbEntity
8
0
100
AcDbCircle
10
-61.320200283187695
20
-8.960954850482139
30
0
40
1.6000000000000014
210
0
220
-0
230
1
0
CIRCLE
5
106
100
AcDbEntity
8
0
100
AcDbCircle
10
23.679799716812767
20
11.039045149516014
30
0
40
1.6000000000000014
210
0
220
-0
230
1
0
CIRCLE
5
107
100
AcDbEntity
8
0
100
AcDbCircle
10
3.6797997168127692
20
11.039045149515978
30
0
40
1.6000000000000003
210
0
220
-0
230
1
0
CIRCLE
5
108
100
AcDbEntity
8
0
100
AcDbCircle
10
23.679799716812319
20
-8.9609548504839864
30
0
40
1.6000000000000014
210
0
220
-0
230
1
0
CIRCLE
5
109
100
AcDbEntity
8
0
100
AcDbCircle
10
3.6797997168123207
20
-8.9609548504840575
30
0
40
1.6000000000000003
210
0
220
-0
230
1
0
CIRCLE
5
110
100
AcDbEntity
8
0
100
AcDbCircle
10
-72.820200283186594
20
-100.46095485050451
30
0
40
1.2999999999999989
210
0
220
-0
230
1
0
CIRCLE
5
111
100
AcDbEntity
8
0
100
AcDbCircle
10
-43.877758415652536
20
22.061212156711747
30
0
40
2.1999999999999971
210
0
220
-0
230
1
0
CIRCLE
5
112
100
AcDbEntity
8
0
100
AcDbCircle
10
10.179799716812925
20
-97.960954850504507
30
0
40
2.1999999999999997
210
0
220
-0
230
1
0
CIRCLE
5
113
100
AcDbEntity
8
0
100
AcDbCircle
10
-43.851188598390408
20
52.061200390789608
30
0
40
2.1999999999999971
210
0
220
-0
230
1
0
CIRCLE
5
114
100
AcDbEntity
8
0
100
AcDbCircle
10
-18.87776822058763
20
22.039070642326948
30
0
40
2.200000000000002
210
0
220
-0
230
1
0
CIRCLE
5
115
100
AcDbEntity
8
0
100
AcDbCircle
10
-47.820200283187091
20
-97.960954850504507
30
0
40
2.1999999999999971
210
0
220
-0
230
1
0
CIRCLE
5
116
100
AcDbEntity
8
0
100
AcDbCircle
10
-72.820200283186594
20
-75.460954850504507
30
0
40
1.2999999999999989
210
0
220
-0
230
1
0
CIRCLE
5
117
100
AcDbEntity
8
0
100
AcDbCircle
10
-72.820200283186594
20
24.539045149495529
30
0
40
1.2999999999999989
210
0
220
-0
230
1
0
CIRCLE
5
118
100
AcDbEntity
8
0
100
AcDbCircle
10
35.179799716813413
20
-50.460954850504471
30
0
40
1.2999999999999989
210
0
220
-0
230
1
0
CIRCLE
5
119
100
AcDbEntity
8
0
100
AcDbCircle
10
6.1487917917391455
20
52.016917362019583
30
0
40
2.2000000000000002
210
0
220
-0
230
1
0
CIRCLE
5
120
100
AcDbEntity
8
0
100
AcDbCircle
10
35.179799716813413
20
-25.460954850504471
30
0
40
1.2999999999999989
210
0
220
-0
230
1
0
CIRCLE
5
121
100
AcDbEntity
8
0
100
AcDbCircle
10
35.179799716813413
20
-100.46095485050451
30
0
40
1.2999999999999989
210
0
220
-0
230
1
0
CIRCLE
5
122
100
AcDbEntity
8
0
100
AcDbCircle
10
35.179799716813413
20
-0.46095485050447138
30
0
40
1.2999999999999989
210
0
220
-0
230
1
0
CIRCLE
5
123
100
AcDbEntity
8
0
100
AcDbCircle
10
-72.820200283186594
20
74.539045149495536
30
0
40
1.2999999999999989
210
0
220
-0
230
1
0
CIRCLE
5
124
100
AcDbEntity
8
0
100
AcDbCircle
10
35.179799716813413
20
49.539045149495529
30
0
40
1.2999999999999989
210
0
220
-0
230
1
0
CIRCLE
5
125
100
AcDbEntity
8
0
100
AcDbCircle
10
-72.820200283186594
20
-25.460954850504471
30
0
40
1.2999999999999989
210
0
220
-0
230
1
0
CIRCLE
5
126
100
AcDbEntity
8
0
100
AcDbCircle
10
35.179799716813413
20
-75.460954850504507
30
0
40
1.2999999999999989
210
0
220
-0
230
1
0
CIRCLE
5
127
100
AcDbEntity
8
0
100
AcDbCircle
10
35.179799716813413
20
24.539045149495529
30
0
40
1.2999999999999989
210
0
220
-0
230
1
0
CIRCLE
5
128
100
AcDbEntity
8
0
100
AcDbCircle
10
-72.820200283186594
20
49.539045149495529
30
0
40
1.2999999999999989
210
0
220
-0
230
1
0
CIRCLE
5
129
100
AcDbEntity
8
0
100
AcDbCircle
10
-72.820200283186594
20
-50.460954850504471
30
0
40
1.2999999999999989
210
0
220
-0
230
1
0
CIRCLE
5
130
100
AcDbEntity
8
0
100
AcDbCircle
10
6.1222219744772666
20
22.016929127941793
30
0
40
2.2000000000000002
210
0
220
-0
230
1
0
CIRCLE
5
131
100
AcDbEntity
8
0
100
AcDbCircle
10
35.179799716813413
20
74.539045149495536
30
0
40
1.2999999999999989
210
0
220
-0
230
1
0
CIRCLE
5
132
100
AcDbEntity
8
0
100
AcDbCircle
10
-18.851198403325611
20
52.039058876404738
30
0
40
2.200000000000002
210
0
220
-0
230
1
0
CIRCLE
5
133
100
AcDbEntity
8
0
100
AcDbCircle
10
-72.820200283186594
20
-0.46095485050447138
30
0
40
1.2999999999999989
210
0
220
-0
230
1
0
CIRCLE
5
134
100
AcDbEntity
8
0
100
AcDbCircle
10
-61.320200283185528
20
83.039045149475015
30
0
40
1.6000000000000014
210
0
220
-0
230
1
0
CIRCLE
5
135
100
AcDbEntity
8
0
100
AcDbCircle
10
3.6797997168145189
20
83.039045149473338
30
0
40
1.6000000000000003
210
0
220
-0
230
1
0
CIRCLE
5
136
100
AcDbEntity
8
0
100
AcDbCircle
10
-41.320200283185585
20
83.039045149474475
30
0
40
1.6000000000000014
210
0
220
-0
230
1
0
CIRCLE
5
137
100
AcDbEntity
8
0
100
AcDbCircle
10
23.679799716814518
20
83.039045149473353
30
0
40
1.6000000000000014
210
0
220
-0
230
1
0
CIRCLE
5
138
100
AcDbEntity
8
0
100
AcDbCircle
10
-41.320200283186004
20
63.039045149474653
30
0
40
1.6000000000000014
210
0
220
-0
230
1
0
CIRCLE
5
139
100
AcDbEntity
8
0
100
AcDbCircle
10
-61.320200283185997
20
63.039045149475008
30
0
40
1.6000000000000014
210
0
220
-0
230
1
0
CIRCLE
5
140
100
AcDbEntity
8
0
100
AcDbCircle
10
23.679799716814035
20
63.039045149473395
30
0
40
1.6000000000000014
210
0
220
-0
230
1
0
ENDSEC
0
SECTION
2
OBJECTS
0
DICTIONARY
5
C
100
AcDbDictionary
3
ACAD_GROUP
350
D
3
ACAD_MLINESTYLE
350
17
0
DICTIONARY
5
D
100
AcDbDictionary
0
DICTIONARY
5
1A
330
C
100
AcDbDictionary
0
DICTIONARY
5
17
100
AcDbDictionary
0
ENDSEC
0
EOF
