0
SECTION
2
HEADER
9
$INSUNITS
70
4
9
$ACADVER
1
AC1014
9
$HANDSEED
5
FFFF
0
ENDSEC
0
SECTION
2
TABLES
0
TABLE
2
VPORT
5
8
100
AcDbSymbolTable
0
ENDTAB
0
TABLE
2
LTYPE
5
5
100
AcDbSymbolTable
0
LTYPE
5
14
100
AcDbSymbolTableRecord
100
AcDbLinetypeTableRecord
2
BYBLOCK
70
0
0
LTYPE
5
15
100
AcDbSymbolTableRecord
100
AcDbLinetypeTableRecord
2
BYLAYER
70
0
0
ENDTAB
0
TABLE
2
LAYER
5
2
100
AcDbSymbolTable
70
2
0
LAYER
5
50
100
AcDbSymbolTableRecord
100
AcDbLayerTableRecord
2
0
70
0
6
CONTINUOUS
0
ENDTAB
0
TABLE
2
STYLE
5
3
100
AcDbSymbolTable
70
1
0
STYLE
5
11
100
AcDbSymbolTableRecord
100
AcDbTextStyleTableRecord
2
STANDARD
70
0
0
ENDTAB
0
TABLE
2
VIEW
5
6
100
AcDbSymbolTable
70
0
0
ENDTAB
0
TABLE
2
UCS
5
7
100
AcDbSymbolTable
70
0
0
ENDTAB
0
TABLE
2
APPID
5
9
100
AcDbSymbolTable
70
2
0
APPID
5
12
100
AcDbSymbolTableRecord
100
AcDbRegAppTableRecord
2
ACAD
70
0
0
ENDTAB
0
TABLE
2
DIMSTYLE
5
A
100
AcDbSymbolTable
70
1
0
ENDTAB
0
TABLE
2
BLOCK_RECORD
5
1
100
AcDbSymbolTable
70
1
0
BLOCK_RECORD
5
1F
100
AcDbSymbolTableRecord
100
AcDbBlockTableRecord
2
*MODEL_SPACE
0
BLOCK_RECORD
5
1B
100
AcDbSymbolTableRecord
100
AcDbBlockTableRecord
2
*PAPER_SPACE
0
ENDTAB
0
ENDSEC
0
SECTION
2
BLOCKS
0
BLOCK
5
20
100
AcDbEntity
100
AcDbBlockBegin
2
*MODEL_SPACE
0
ENDBLK
5
21
100
AcDbEntity
100
AcDbBlockEnd
0
BLOCK
5
1C
100
AcDbEntity
100
AcDbBlockBegin
2
*PAPER_SPACE
0
ENDBLK
5
1D
100
AcDbEntity
100
AcDbBlockEnd
0
ENDSEC
0
SECTION
2
ENTITIES
0
LWPOLYLINE
5
100
100
AcDbEntity
8
0
100
AcDbPolyline
90
4
70
1
43
0.0
10
-44
20
33.723285705565871
10
-44
20
106.2767142944341
42
0.99999999999999989
10
-56
20
106.2767142944341
10
-56
20
33.723285705565871
42
0.99999999999999989
0
CIRCLE
5
101
100
AcDbEntity
8
0
100
AcDbCircle
10
-62.5
20
17.499999999999993
30
0
40
0.99999999999999645
210
0
220
-0
230
1
0
CIRCLE
5
102
100
AcDbEntity
8
0
100
AcDbCircle
10
-62.5
20
122.5
30
0
40
0.99999999999999645
210
0
220
-0
230
1
0
LWPOLYLINE
5
103
100
AcDbEntity
8
0
100
AcDbPolyline
90
4
70
1
43
0.0
10
-23.999999999999993
20
19.840255184062183
10
-24.000000000000004
20
120.1597448159378
42
0.99999999999999989
10
-36.000000000000007
20
120.1597448159378
10
-36
20
19.840255184062183
42
0.99999999999999989
0
LWPOLYLINE
5
104
100
AcDbEntity
8
0
100
AcDbPolyline
90
4
70
1
43
0.0
10
-3.9999999999999991
20
16.000000238418579
10
-3.9999999999999991
20
123.99999976158141
42
0.99999999999999989
10
-16
20
123.99999976158141
10
-16
20
16.000000238418579
42
0.99999999999999989
0
CIRCLE
5
105
100
AcDbEntity
8
0
100
AcDbCircle
10
42.5
20
17.499999999999993
30
0
40
0.99999999999999645
210
0
220
-0
230
1
0
CIRCLE
5
106
100
AcDbEntity
8
0
100
AcDbCircle
10
42.5
20
122.5
30
0
40
0.99999999999999645
210
0
220
-0
230
1
0
LWPOLYLINE
5
107
100
AcDbEntity
8
0
100
AcDbPolyline
90
4
70
1
43
0.0
10
35.999999642372131
20
33.723285705565871
10
35.999999642372131
20
106.2767142944341
42
0.99999999999999989
10
24.000000357627869
20
106.2767142944341
10
24.000000357627869
20
33.723285705565871
42
0.99999999999999989
0
LWPOLYLINE
5
108
100
AcDbEntity
8
0
100
AcDbPolyline
90
4
70
1
43
0.0
10
16
20
19.840255184062165
10
16
20
120.1597448159378
42
0.99999999999999989
10
3.9999999999999991
20
120.1597448159378
10
3.9999999999999991
20
19.840255184062173
42
0.99999999999999989
0
LWPOLYLINE
5
109
100
AcDbEntity
8
0
100
AcDbPolyline
90
52
70
1
43
0.0
10
190
20
20
10
190
20
0
10
165
20
0
10
165
20
5
10
135
20
5
10
135
20
0
10
105
20
0
10
105
20
5
10
75
20
5
10
75
20
0
10
45
20
0
10
45
20
5
10
15
20
5
10
15
20
0
10
-15
20
0
10
-15
20
5
10
-45
20
5
10
-45
20
0
10
-75
20
0
10
-75
20
5
10
-105
20
5
10
-105
20
0
10
-135
20
0
10
-135
20
5
10
-165
20
5
10
-165
20
0
10
-190
20
0
10
-190
20
20
10
-195
20
20
10
-195
20
40
10
-190
20
40
10
-190
20
60
10
-195
20
60
10
-195
20
80
10
-190
20
80
10
-190
20
100
10
-195
20
100
10
-195
20
120
10
-190
20
120
10
-190
20
135
10
190
20
135
10
190
20
120
10
195
20
120
10
195
20
100
10
190
20
100
10
190
20
80
10
195
20
80
10
195
20
60
10
190
20
60
10
190
20
40
10
195
20
40
10
195
20
20
0
ENDSEC
0
SECTION
2
OBJECTS
0
DICTIONARY
5
C
100
AcDbDictionary
3
ACAD_GROUP
350
D
3
ACAD_MLINESTYLE
350
17
0
DICTIONARY
5
D
100
AcDbDictionary
0
DICTIONARY
5
1A
330
C
100
AcDbDictionary
0
DICTIONARY
5
17
100
AcDbDictionary
0
ENDSEC
0
EOF
