0
SECTION
2
HEADER
9
$INSUNITS
70
4
9
$ACADVER
1
AC1014
9
$HANDSEED
5
FFFF
0
ENDSEC
0
SECTION
2
TABLES
0
TABLE
2
VPORT
5
8
100
AcDbSymbolTable
0
ENDTAB
0
TABLE
2
LTYPE
5
5
100
AcDbSymbolTable
0
LTYPE
5
14
100
AcDbSymbolTableRecord
100
AcDbLinetypeTableRecord
2
BYBLOCK
70
0
0
LTYPE
5
15
100
AcDbSymbolTableRecord
100
AcDbLinetypeTableRecord
2
BYLAYER
70
0
0
ENDTAB
0
TABLE
2
LAYER
5
2
100
AcDbSymbolTable
70
2
0
LAYER
5
50
100
AcDbSymbolTableRecord
100
AcDbLayerTableRecord
2
0
70
0
6
CONTINUOUS
0
ENDTAB
0
TABLE
2
STYLE
5
3
100
AcDbSymbolTable
70
1
0
STYLE
5
11
100
AcDbSymbolTableRecord
100
AcDbTextStyleTableRecord
2
STANDARD
70
0
0
ENDTAB
0
TABLE
2
VIEW
5
6
100
AcDbSymbolTable
70
0
0
ENDTAB
0
TABLE
2
UCS
5
7
100
AcDbSymbolTable
70
0
0
ENDTAB
0
TABLE
2
APPID
5
9
100
AcDbSymbolTable
70
2
0
APPID
5
12
100
AcDbSymbolTableRecord
100
AcDbRegAppTableRecord
2
ACAD
70
0
0
ENDTAB
0
TABLE
2
DIMSTYLE
5
A
100
AcDbSymbolTable
70
1
0
ENDTAB
0
TABLE
2
BLOCK_RECORD
5
1
100
AcDbSymbolTable
70
1
0
BLOCK_RECORD
5
1F
100
AcDbSymbolTableRecord
100
AcDbBlockTableRecord
2
*MODEL_SPACE
0
BLOCK_RECORD
5
1B
100
AcDbSymbolTableRecord
100
AcDbBlockTableRecord
2
*PAPER_SPACE
0
ENDTAB
0
ENDSEC
0
SECTION
2
BLOCKS
0
BLOCK
5
20
100
AcDbEntity
100
AcDbBlockBegin
2
*MODEL_SPACE
0
ENDBLK
5
21
100
AcDbEntity
100
AcDbBlockEnd
0
BLOCK
5
1C
100
AcDbEntity
100
AcDbBlockBegin
2
*PAPER_SPACE
0
ENDBLK
5
1D
100
AcDbEntity
100
AcDbBlockEnd
0
ENDSEC
0
SECTION
2
ENTITIES
0
LWPOLYLINE
5
100
100
AcDbEntity
8
0
100
AcDbPolyline
90
17
70
1
43
0.0
10
-47.316557904938144
20
-22.610856772463507
42
-0.41421356237309737
10
-37.316557904938009
20
-12.610856772463537
10
34.383442095062406
20
-12.610856772464469
42
-0.41421356237309542
10
44.383442095062264
20
-22.610856772464626
10
44.383442095061838
20
-53.97115442980251
42
0.17632698070846101
10
46.722997663871979
20
-60.399030526668049
10
106.32264749490552
20
-131.42712733015912
42
-0.17632698070846475
10
108.66220306371567
20
-137.85500342702451
10
108.66220306371567
20
-204.21530108436244
42
-0.41421356237309814
10
98.662203063715666
20
-214.21530108436241
10
57.104510407857276
20
-214.21530108436252
42
-0.22169466264293752
10
49.444065976667417
20
-210.64317718122791
10
-54.977002336128045
20
-86.198993876928768
42
-0.17632698070847508
10
-57.31655790493825
20
-79.771117780063406
10
-57.31655790493825
20
-59.760838447580966
42
-0.41421356237308293
10
-54.316557904938279
20
-56.760838447580973
10
-47.31655790493825
20
-56.760838447580966
0
CIRCLE
5
101
100
AcDbEntity
8
0
100
AcDbCircle
10
-33.966558724501681
20
-60.51083844758098
30
0
40
1.6000000000000014
210
0
220
-0
230
1
0
CIRCLE
5
102
100
AcDbEntity
8
0
100
AcDbCircle
10
-53.966557904938277
20
-60.510838447580966
30
0
40
1.6000000000000014
210
0
220
-0
230
1
0
CIRCLE
5
103
100
AcDbEntity
8
0
100
AcDbCircle
10
-33.966558724501752
20
-80.51083844758098
30
0
40
1.6000000000000014
210
0
220
-0
230
1
0
CIRCLE
5
104
100
AcDbEntity
8
0
100
AcDbCircle
10
-53.96655790493849
20
-80.510838447580952
30
0
40
1.6000000000000014
210
0
220
-0
230
1
0
CIRCLE
5
105
100
AcDbEntity
8
0
100
AcDbCircle
10
41.033442095061758
20
-60.510838447582209
30
0
40
1.5999999999999659
210
0
220
-0
230
1
0
CIRCLE
5
106
100
AcDbEntity
8
0
100
AcDbCircle
10
21.033442095062043
20
-60.510838447582245
30
0
40
1.6000000000000014
210
0
220
-0
230
1
0
CIRCLE
5
107
100
AcDbEntity
8
0
100
AcDbCircle
10
41.033442095061474
20
-80.510838447582216
30
0
40
1.5999999999999659
210
0
220
-0
230
1
0
CIRCLE
5
108
100
AcDbEntity
8
0
100
AcDbCircle
10
21.033442095061829
20
-80.510838447582088
30
0
40
1.6000000000000014
210
0
220
-0
230
1
0
CIRCLE
5
109
100
AcDbEntity
8
0
100
AcDbCircle
10
68.662203063715666
20
-132.21530108436241
30
0
40
3.1000000000000227
210
0
220
-0
230
1
0
CIRCLE
5
110
100
AcDbEntity
8
0
100
AcDbCircle
10
88.662203063715666
20
-204.21530108436244
30
0
40
3.1000000000000227
210
0
220
-0
230
1
0
CIRCLE
5
111
100
AcDbEntity
8
0
100
AcDbCircle
10
88.662203063715666
20
-132.21530108436241
30
0
40
3.1000000000000227
210
0
220
-0
230
1
0
CIRCLE
5
112
100
AcDbEntity
8
0
100
AcDbCircle
10
78.662203063715666
20
-168.21530108436241
30
0
40
13.999999999999984
210
0
220
-0
230
1
0
CIRCLE
5
113
100
AcDbEntity
8
0
100
AcDbCircle
10
63.162203063715836
20
-152.71530108436247
30
0
40
1.9999999999999574
210
0
220
-0
230
1
0
CIRCLE
5
114
100
AcDbEntity
8
0
100
AcDbCircle
10
-32.316557904938215
20
-53.760838447581008
30
0
40
2.2500000000000142
210
0
220
-0
230
1
0
CIRCLE
5
115
100
AcDbEntity
8
0
100
AcDbCircle
10
-42.316557904938215
20
-53.760838447580909
30
0
40
2.2500000000000142
210
0
220
-0
230
1
0
CIRCLE
5
116
100
AcDbEntity
8
0
100
AcDbCircle
10
55.092203063715672
20
-144.64530108436244
30
0
40
2.5999999999999801
210
0
220
-0
230
1
0
CIRCLE
5
117
100
AcDbEntity
8
0
100
AcDbCircle
10
102.23220306371566
20
-144.64530108436242
30
0
40
2.5999999999999801
210
0
220
-0
230
1
0
CIRCLE
5
118
100
AcDbEntity
8
0
100
AcDbCircle
10
102.23220306371566
20
-191.7853010843624
30
0
40
2.6000000000000512
210
0
220
-0
230
1
0
CIRCLE
5
119
100
AcDbEntity
8
0
100
AcDbCircle
10
55.092203063715672
20
-191.7853010843624
30
0
40
2.5999999999999801
210
0
220
-0
230
1
0
CIRCLE
5
120
100
AcDbEntity
8
0
100
AcDbCircle
10
94.16220306371585
20
-152.71530108436247
30
0
40
2.0000000000000284
210
0
220
-0
230
1
0
CIRCLE
5
121
100
AcDbEntity
8
0
100
AcDbCircle
10
-22.316557904938215
20
-53.760838447581065
30
0
40
2.2500000000000142
210
0
220
-0
230
1
0
CIRCLE
5
122
100
AcDbEntity
8
0
100
AcDbCircle
10
68.662203063715666
20
-204.21530108436244
30
0
40
3.1000000000000227
210
0
220
-0
230
1
0
CIRCLE
5
123
100
AcDbEntity
8
0
100
AcDbCircle
10
94.16220306371585
20
-183.71530108436249
30
0
40
2.0000000000000284
210
0
220
-0
230
1
0
CIRCLE
5
124
100
AcDbEntity
8
0
100
AcDbCircle
10
63.162203063715836
20
-183.71530108436249
30
0
40
2.0000000000000284
210
0
220
-0
230
1
0
ENDSEC
0
SECTION
2
OBJECTS
0
DICTIONARY
5
C
100
AcDbDictionary
3
ACAD_GROUP
350
D
3
ACAD_MLINESTYLE
350
17
0
DICTIONARY
5
D
100
AcDbDictionary
0
DICTIONARY
5
1A
330
C
100
AcDbDictionary
0
DICTIONARY
5
17
100
AcDbDictionary
0
ENDSEC
0
EOF
