0
SECTION
2
HEADER
9
$INSUNITS
70
4
9
$ACADVER
1
AC1014
9
$HANDSEED
5
FFFF
0
ENDSEC
0
SECTION
2
TABLES
0
TABLE
2
VPORT
5
8
100
AcDbSymbolTable
0
ENDTAB
0
TABLE
2
LTYPE
5
5
100
AcDbSymbolTable
0
LTYPE
5
14
100
AcDbSymbolTableRecord
100
AcDbLinetypeTableRecord
2
BYBLOCK
70
0
0
LTYPE
5
15
100
AcDbSymbolTableRecord
100
AcDbLinetypeTableRecord
2
BYLAYER
70
0
0
ENDTAB
0
TABLE
2
LAYER
5
2
100
AcDbSymbolTable
70
2
0
LAYER
5
50
100
AcDbSymbolTableRecord
100
AcDbLayerTableRecord
2
0
70
0
6
CONTINUOUS
0
ENDTAB
0
TABLE
2
STYLE
5
3
100
AcDbSymbolTable
70
1
0
STYLE
5
11
100
AcDbSymbolTableRecord
100
AcDbTextStyleTableRecord
2
STANDARD
70
0
0
ENDTAB
0
TABLE
2
VIEW
5
6
100
AcDbSymbolTable
70
0
0
ENDTAB
0
TABLE
2
UCS
5
7
100
AcDbSymbolTable
70
0
0
ENDTAB
0
TABLE
2
APPID
5
9
100
AcDbSymbolTable
70
2
0
APPID
5
12
100
AcDbSymbolTableRecord
100
AcDbRegAppTableRecord
2
ACAD
70
0
0
ENDTAB
0
TABLE
2
DIMSTYLE
5
A
100
AcDbSymbolTable
70
1
0
ENDTAB
0
TABLE
2
BLOCK_RECORD
5
1
100
AcDbSymbolTable
70
1
0
BLOCK_RECORD
5
1F
100
AcDbSymbolTableRecord
100
AcDbBlockTableRecord
2
*MODEL_SPACE
0
BLOCK_RECORD
5
1B
100
AcDbSymbolTableRecord
100
AcDbBlockTableRecord
2
*PAPER_SPACE
0
ENDTAB
0
ENDSEC
0
SECTION
2
BLOCKS
0
BLOCK
5
20
100
AcDbEntity
100
AcDbBlockBegin
2
*MODEL_SPACE
0
ENDBLK
5
21
100
AcDbEntity
100
AcDbBlockEnd
0
BLOCK
5
1C
100
AcDbEntity
100
AcDbBlockBegin
2
*PAPER_SPACE
0
ENDBLK
5
1D
100
AcDbEntity
100
AcDbBlockEnd
0
ENDSEC
0
SECTION
2
ENTITIES
0
LWPOLYLINE
5
100
100
AcDbEntity
8
0
100
AcDbPolyline
90
8
70
1
43
0.0
10
57.855213118548399
20
-62.128599457671648
42
-0.43187057771408632
10
49.869563902717395
20
-70.607563549966059
10
-12.27019600387456
20
-70.607563549961313
42
-0.4334030926824336
10
-20.253265607722643
20
-62.087371566067787
10
-13.152452634585735
20
46.884481064525957
42
-0.39528092984444541
10
-5.1693830307393096
20
54.36428908063241
10
43.333638886450927
20
54.364289080646074
42
-0.39677428332458325
10
51.319288102283579
20
46.843253172940493
0
CIRCLE
5
101
100
AcDbEntity
8
0
100
AcDbCircle
10
-10.179791715672359
20
-63.607563549968198
30
0
40
2.1999999999999997
210
0
220
-0
230
1
0
CIRCLE
5
102
100
AcDbEntity
8
0
100
AcDbCircle
10
18.82020828458813
20
-58.10756554999017
30
0
40
8.75
210
0
220
-0
230
1
0
CIRCLE
5
103
100
AcDbEntity
8
0
100
AcDbCircle
10
47.82020828432762
20
-63.607563549968191
30
0
40
2.1999999999999971
210
0
220
-0
230
1
0
LWPOLYLINE
5
104
100
AcDbEntity
8
0
100
AcDbPolyline
90
4
70
1
43
0.0
10
37.820208284591381
20
8.8924344500089187
42
-0.99999999999999989
10
-0.17979171540859262
20
8.8924344500107644
10
-0.17979171540781161
20
24.892434450010754
42
-1.0000008008251018
10
37.820208284592127
20
24.892434450223394
0
LWPOLYLINE
5
105
100
AcDbEntity
8
0
100
AcDbPolyline
90
4
70
1
43
0.0
10
-7.3497917154082142
20
48.46243445000983
10
-7.3497917154082071
20
32.462434450009816
42
0.99999999999999989
10
-2.1497917154082211
20
32.462434450009852
10
-2.149791715408218
20
48.462434450009901
42
0.99999999999999989
0
LWPOLYLINE
5
106
100
AcDbEntity
8
0
100
AcDbPolyline
90
4
70
1
43
0.0
10
-2.1497917154082202
20
-14.677565549990117
10
-2.1497917154082167
20
1.3224344500098439
42
0.99999999999999989
10
-7.3497917154082142
20
1.3224344500098795
10
-7.3497917154082142
20
-14.677565549990117
42
0.99999999999999989
0
LWPOLYLINE
5
107
100
AcDbEntity
8
0
100
AcDbPolyline
90
4
70
1
43
0.0
10
44.990208284591766
20
32.462434450009852
10
44.990208284591745
20
48.462434450009852
42
0.99999999999999989
10
39.790208284591785
20
48.462434450009852
10
39.790208284591785
20
32.462434450009852
42
0.99999999999999989
0
LINE
5
108
100
AcDbEntity
8
0
100
AcDbLine
10
44.990208284591759
20
1.3224345692191619
30
0
11
44.990208284591766
21
-14.677565549990126
31
0
0
ARC
5
109
100
AcDbEntity
8
0
100
AcDbCircle
10
42.390208284591779
20
-14.677565549990121
30
0
40
2.599999999999989
210
0
220
0
230
1
100
AcDbArc
50
180
51
360
0
LINE
5
110
100
AcDbEntity
8
0
100
AcDbLine
10
39.790208284591785
20
-14.677565549990126
30
0
11
39.790208284591799
21
1.3224345692191619
31
0
0
ARC
5
111
100
AcDbEntity
8
0
100
AcDbCircle
10
42.390208284591786
20
1.3224344500098835
30
0
40
2.5999999999999739
210
0
220
-0
230
1
100
AcDbArc
50
2.561320938754782e-06
51
179.99999743867906
0
CIRCLE
5
112
100
AcDbEntity
8
0
100
AcDbCircle
10
33.820208284588148
20
-58.107565549990916
30
0
40
1.2499999999999822
210
0
220
-0
230
1
0
CIRCLE
5
113
100
AcDbEntity
8
0
100
AcDbCircle
10
3.8202082845881313
20
-58.107565549989424
30
0
40
1.2499999999999973
210
0
220
-0
230
1
0
ENDSEC
0
SECTION
2
OBJECTS
0
DICTIONARY
5
C
100
AcDbDictionary
3
ACAD_GROUP
350
D
3
ACAD_MLINESTYLE
350
17
0
DICTIONARY
5
D
100
AcDbDictionary
0
DICTIONARY
5
1A
330
C
100
AcDbDictionary
0
DICTIONARY
5
17
100
AcDbDictionary
0
ENDSEC
0
EOF
